<?xml version="1.0" encoding="UTF-8"?>
<svg xmlns="http://www.w3.org/2000/svg" viewBox="0 0 920 640" font-family="Segoe UI, Microsoft YaHei, PingFang SC, sans-serif">
  <defs>
    <marker id="a" markerWidth="8" markerHeight="8" refX="7" refY="4" orient="auto"><polygon points="0,0 8,4 0,8" fill="#4a5568"/></marker>
    <style><![CDATA[
      .title{font-size:17px;font-weight:700;fill:#1a202c}.sub{font-size:10.5px;fill:#718096}
      .scene{font-size:12px;font-weight:700;fill:#1a202c}.node{font-size:9.5px;fill:#2d3748}.cap{font-size:8.5px;fill:#718096}
    ]]></style>
  </defs>
  <rect width="920" height="640" fill="#fafafa"/>
  <text x="460" y="32" text-anchor="middle" class="title">图 4　三种典型场景推荐工作流</text>
  <text x="460" y="52" text-anchor="middle" class="sub">自上而下难度递减：表位靶向 de novo → CDR 重设计 → 序列优先低算力</text>
  <rect x="24" y="68" width="872" height="168" rx="10" fill="#f0fff4" stroke="#48bb78" stroke-width="1.5"/>
  <text x="44" y="92" class="scene">12.1 表位靶向 de novo VHH</text>
  <rect x="44" y="104" width="130" height="44" rx="5" fill="#c6f6d5" stroke="#38a169"/>
  <text x="109" y="122" text-anchor="middle" class="node" font-weight="600">抗原结构</text>
  <text x="109" y="138" text-anchor="middle" class="cap">Boltz / AF3</text>
  <line x1="174" y1="126" x2="198" y2="126" stroke="#4a5568" marker-end="url(#a)"/>
  <rect x="198" y="104" width="130" height="44" rx="5" fill="#bee3f8" stroke="#3182ce"/>
  <text x="263" y="122" text-anchor="middle" class="node" font-weight="600">表位预测</text>
  <text x="263" y="138" text-anchor="middle" class="cap">BepiPred</text>
  <line x1="328" y1="126" x2="352" y2="126" stroke="#4a5568" marker-end="url(#a)"/>
  <rect x="352" y="104" width="130" height="44" rx="5" fill="#fed7d7" stroke="#e53e3e"/>
  <text x="417" y="122" text-anchor="middle" class="node" font-weight="600">表位设计</text>
  <text x="417" y="138" text-anchor="middle" class="cap">Germinal / mBER</text>
  <line x1="482" y1="126" x2="506" y2="126" stroke="#4a5568" marker-end="url(#a)"/>
  <rect x="506" y="104" width="120" height="44" rx="5" fill="#feebc8" stroke="#dd6b20"/>
  <text x="566" y="122" text-anchor="middle" class="node" font-weight="600">序列</text>
  <text x="566" y="138" text-anchor="middle" class="cap">AbMPNN</text>
  <line x1="626" y1="126" x2="650" y2="126" stroke="#4a5568" marker-end="url(#a)"/>
  <rect x="650" y="104" width="120" height="44" rx="5" fill="#e9d8fd" stroke="#805ad5"/>
  <text x="710" y="122" text-anchor="middle" class="node" font-weight="600">共折叠过滤</text>
  <text x="710" y="138" text-anchor="middle" class="cap">Boltz / AF3</text>
  <line x1="770" y1="126" x2="794" y2="126" stroke="#4a5568" marker-end="url(#a)"/>
  <rect x="794" y="104" width="86" height="44" rx="5" fill="#feb2b2" stroke="#c53030"/>
  <text x="837" y="130" text-anchor="middle" class="node" font-weight="600">BLI/SPR</text>
  <text x="460" y="178" text-anchor="middle" class="cap">↓ GearBind 排序 · BioPhi 可开发性 · ANARCI 定稿</text>
  <rect x="24" y="252" width="872" height="168" rx="10" fill="#ebf8ff" stroke="#4299e1" stroke-width="1.5"/>
  <text x="44" y="276" class="scene">12.2 已知复合物 CDR 重设计</text>
  <rect x="44" y="288" width="140" height="44" rx="5" fill="#bee3f8" stroke="#3182ce"/>
  <text x="114" y="306" text-anchor="middle" class="node" font-weight="600">共晶 / AF 复合物</text>
  <text x="114" y="322" text-anchor="middle" class="cap">起始结构</text>
  <line x1="184" y1="310" x2="208" y2="310" stroke="#4a5568" marker-end="url(#a)"/>
  <rect x="208" y="288" width="150" height="44" rx="5" fill="#fed7d7" stroke="#e53e3e"/>
  <text x="283" y="306" text-anchor="middle" class="node" font-weight="600">CDR 重采样</text>
  <text x="283" y="322" text-anchor="middle" class="cap">RFdiffusion / MPNN</text>
  <line x1="358" y1="310" x2="382" y2="310" stroke="#4a5568" marker-end="url(#a)"/>
  <rect x="382" y="288" width="140" height="44" rx="5" fill="#e9d8fd" stroke="#805ad5"/>
  <text x="452" y="306" text-anchor="middle" class="node" font-weight="600">结构重预测</text>
  <text x="452" y="322" text-anchor="middle" class="cap">IgFold + AF3</text>
  <line x1="522" y1="310" x2="546" y2="310" stroke="#4a5568" marker-end="url(#a)"/>
  <rect x="546" y="288" width="150" height="44" rx="5" fill="#c6f6d5" stroke="#38a169"/>
  <text x="621" y="306" text-anchor="middle" class="node" font-weight="600">ΔΔG 排序</text>
  <text x="621" y="322" text-anchor="middle" class="cap">GearBind / Flex ddG</text>
  <line x1="696" y1="310" x2="720" y2="310" stroke="#4a5568" marker-end="url(#a)"/>
  <rect x="720" y="288" width="160" height="44" rx="5" fill="#feb2b2" stroke="#c53030"/>
  <text x="800" y="306" text-anchor="middle" class="node" font-weight="600">DMS / 定点合成</text>
  <text x="800" y="322" text-anchor="middle" class="cap">top 12–24</text>
  <text x="460" y="362" text-anchor="middle" class="cap">亲和力成熟前置；固定 FR，主要探索 CDR 空间</text>
  <rect x="24" y="436" width="872" height="168" rx="10" fill="#fffaf0" stroke="#ed8936" stroke-width="1.5"/>
  <text x="44" y="460" class="scene">12.3 序列优先 · 低算力</text>
  <rect x="44" y="472" width="140" height="44" rx="5" fill="#feebc8" stroke="#dd6b20"/>
  <text x="114" y="490" text-anchor="middle" class="node" font-weight="600">条件序列生成</text>
  <text x="114" y="506" text-anchor="middle" class="cap">AbBFN2 / IgLM</text>
  <line x1="184" y1="494" x2="208" y2="494" stroke="#4a5568" marker-end="url(#a)"/>
  <rect x="208" y="472" width="140" height="44" rx="5" fill="#c6f6d5" stroke="#38a169"/>
  <text x="278" y="490" text-anchor="middle" class="node" font-weight="600">序列排序</text>
  <text x="278" y="506" text-anchor="middle" class="cap">AbAgIntPre / AbRank</text>
  <line x1="348" y1="494" x2="372" y2="494" stroke="#4a5568" marker-end="url(#a)"/>
  <rect x="372" y="472" width="140" height="44" rx="5" fill="#e9d8fd" stroke="#805ad5"/>
  <text x="442" y="490" text-anchor="middle" class="node" font-weight="600">单体 + 对接</text>
  <text x="442" y="506" text-anchor="middle" class="cap">IgFold + AF2 + HADDOCK</text>
  <line x1="512" y1="494" x2="536" y2="494" stroke="#4a5568" marker-end="url(#a)"/>
  <rect x="536" y="472" width="130" height="44" rx="5" fill="#faf089" stroke="#d69e2e"/>
  <text x="601" y="490" text-anchor="middle" class="node" font-weight="600">人源化</text>
  <text x="601" y="506" text-anchor="middle" class="cap">BioPhi</text>
  <line x1="666" y1="494" x2="690" y2="494" stroke="#4a5568" marker-end="url(#a)"/>
  <rect x="690" y="472" width="190" height="44" rx="5" fill="#feb2b2" stroke="#c53030"/>
  <text x="785" y="498" text-anchor="middle" class="node" font-weight="600">无需 GPU 集群的初筛原型</text>
  <text x="460" y="546" text-anchor="middle" class="cap">结构后置验证；适合资源受限或大规模序列初筛</text>
</svg>