<?xml version="1.0" encoding="UTF-8"?>
<svg xmlns="http://www.w3.org/2000/svg" width="820" height="280" viewBox="0 0 820 280">
  <defs>
    <style><![CDATA[
      .t{font:bold 13px Arial,Helvetica,sans-serif;fill:#1a202c}
      .l{font:11px Arial,Helvetica,sans-serif;fill:#2d3748}
      .c{fill:#ebf8ff;stroke:#2b6cb0;stroke-width:1.2}
      .p{fill:#e6fffa;stroke:#319795;stroke-width:1.2}
      .arr{stroke:#2c5282;stroke-width:1.3;fill:none;marker-end:url(#m)}
    ]]></style>
    <marker id="m" markerWidth="7" markerHeight="7" refX="6" refY="3.5" orient="auto"><polygon points="0 0,7 3.5,0 7" fill="#2c5282"/></marker>
  </defs>
  <rect width="100%" height="100%" fill="#fff"/>
  <text x="410" y="24" text-anchor="middle" class="t">Fig.1 Controllers create/manage Pods (simplified)</text>
  <rect x="60" y="52" width="130" height="40" class="c" rx="3"/><text x="125" y="76" text-anchor="middle" class="l">Deployment</text>
  <rect x="220" y="52" width="90" height="40" class="c" rx="3"/><text x="265" y="76" text-anchor="middle" class="l">Job</text>
  <rect x="340" y="52" width="110" height="40" class="c" rx="3"/><text x="395" y="76" text-anchor="middle" class="l">CronJob</text>
  <rect x="480" y="52" width="120" height="40" class="c" rx="3"/><text x="540" y="76" text-anchor="middle" class="l">DaemonSet</text>
  <line x1="125" y1="92" x2="125" y2="130" class="arr"/><line x1="265" y1="92" x2="265" y2="130" class="arr"/>
  <line x1="395" y1="92" x2="395" y2="130" class="arr"/><line x1="540" y1="92" x2="540" y2="130" class="arr"/>
  <text x="410" y="118" text-anchor="middle" class="l" font-size="10px">controller loops reconcile desired spec</text>
  <rect x="80" y="140" width="660" height="88" fill="none" stroke="#cbd5e0" stroke-dasharray="4 3" rx="4"/>
  <text x="410" y="168" text-anchor="middle" class="l" font-weight="bold">Pod (minimal schedulable unit)</text>
  <rect x="120" y="182" width="100" height="36" class="p" rx="3"/><text x="170" y="204" text-anchor="middle" class="l">Pod</text>
  <rect x="260" y="182" width="100" height="36" class="p" rx="3"/><text x="310" y="204" text-anchor="middle" class="l">Pod</text>
  <rect x="400" y="182" width="100" height="36" class="p" rx="3"/><text x="450" y="204" text-anchor="middle" class="l">Pod</text>
  <rect x="540" y="182" width="100" height="36" class="p" rx="3"/><text x="590" y="204" text-anchor="middle" class="l">Pod</text>
  <text x="410" y="252" text-anchor="middle" class="l" font-size="10px">Scheduler assigns each Pod to a Node (see k8s-01 Fig.5 step 4)</text>
</svg>
