<?xml version="1.0" encoding="UTF-8"?>
<svg xmlns="http://www.w3.org/2000/svg" viewBox="0 0 760 540">
  <defs>
    <linearGradient id="gH" x1="0" y1="0" x2="1" y2="1">
      <stop offset="0%" stop-color="#2c5282"/>
      <stop offset="100%" stop-color="#4a6fa5"/>
    </linearGradient>
    <linearGradient id="gL" x1="0" y1="0" x2="1" y2="1">
      <stop offset="0%" stop-color="#718096"/>
      <stop offset="100%" stop-color="#a0aec0"/>
    </linearGradient>
    <marker id="arr" markerWidth="8" markerHeight="8" refX="6" refY="4" orient="auto">
      <path d="M0,0 L8,4 L0,8 z" fill="#4a5568"/>
    </marker>
    <filter id="soft" x="-20%" y="-20%" width="140%" height="140%">
      <feGaussianBlur stdDeviation="0.5" result="b"/>
      <feMerge>
        <feMergeNode in="b"/>
        <feMergeNode in="SourceGraphic"/>
      </feMerge>
    </filter>
  </defs>
  <rect width="760" height="540" fill="#fafafa"/>
  <text x="380" y="30" text-anchor="middle" font-size="16" fill="#1a202c" font-family="Segoe UI, Arial, sans-serif" font-weight="600">Fig.1 IgG domain cartoon (H2L2, Y-shaped)</text>
  <text x="380" y="50" text-anchor="middle" font-size="11" fill="#718096" font-family="Segoe UI, Arial, sans-serif">Ovals: Ig-like domains; lines: peptide; elbow: VH-CH1 / VL-CL flex; hinge: rich in Pro, Cys</text>

  <g id="armL">
    <line x1="138" y1="84" x2="138" y2="106" stroke="#1a365d" stroke-width="3"/>
    <ellipse cx="138" cy="68" rx="40" ry="26" fill="url(#gH)" stroke="#1a365d" stroke-width="1.5" filter="url(#soft)"/>
    <text x="138" y="74" text-anchor="middle" font-size="11" fill="#ffffff" font-family="Segoe UI, Arial, sans-serif" font-weight="600">VH</text>
    <line x1="138" y1="94" x2="138" y2="118" stroke="#1a365d" stroke-width="3"/>
    <ellipse cx="138" cy="142" rx="40" ry="26" fill="url(#gH)" stroke="#1a365d" stroke-width="1.5"/>
    <text x="138" y="148" text-anchor="middle" font-size="11" fill="#ffffff" font-family="Segoe UI, Arial, sans-serif">CH1</text>
    <ellipse cx="228" cy="68" rx="40" ry="26" fill="url(#gL)" stroke="#4a5568" stroke-width="1.5"/>
    <text x="228" y="74" text-anchor="middle" font-size="11" fill="#1a202c" font-family="Segoe UI, Arial, sans-serif" font-weight="600">VL</text>
    <line x1="228" y1="94" x2="228" y2="118" stroke="#4a5568" stroke-width="2.5"/>
    <ellipse cx="228" cy="142" rx="40" ry="26" fill="url(#gL)" stroke="#4a5568" stroke-width="1.5"/>
    <text x="228" y="148" text-anchor="middle" font-size="11" fill="#1a202c" font-family="Segoe UI, Arial, sans-serif">CL</text>
    <path d="M 168 68 L 198 68" stroke="#c05621" stroke-width="2" stroke-dasharray="3 2"/>
    <text x="183" y="62" font-size="9" fill="#c05621" font-family="Segoe UI, Arial, sans-serif">S-S</text>
    <path d="M 168 142 L 198 142" stroke="#c05621" stroke-width="2" stroke-dasharray="3 2"/>
    <text x="183" y="136" font-size="9" fill="#c05621" font-family="Segoe UI, Arial, sans-serif">S-S</text>
    <path d="M 138 168 Q 155 195 178 218" stroke="#1a365d" stroke-width="3" fill="none"/>
    <text x="120" y="192" font-size="9" fill="#4a5568" font-family="Segoe UI, Arial, sans-serif">elbow</text>
    <path d="M 228 168 Q 210 195 188 218" stroke="#4a5568" stroke-width="2.5" fill="none"/>
  </g>

  <g id="armR">
    <ellipse cx="522" cy="68" rx="40" ry="26" fill="url(#gH)" stroke="#1a365d" stroke-width="1.5"/>
    <text x="522" y="74" text-anchor="middle" font-size="11" fill="#ffffff" font-family="Segoe UI, Arial, sans-serif" font-weight="600">VH</text>
    <line x1="522" y1="94" x2="522" y2="118" stroke="#1a365d" stroke-width="3"/>
    <ellipse cx="522" cy="142" rx="40" ry="26" fill="url(#gH)" stroke="#1a365d" stroke-width="1.5"/>
    <text x="522" y="148" text-anchor="middle" font-size="11" fill="#ffffff" font-family="Segoe UI, Arial, sans-serif">CH1</text>
    <ellipse cx="612" cy="68" rx="40" ry="26" fill="url(#gL)" stroke="#4a5568" stroke-width="1.5"/>
    <text x="612" y="74" text-anchor="middle" font-size="11" fill="#1a202c" font-family="Segoe UI, Arial, sans-serif" font-weight="600">VL</text>
    <line x1="612" y1="94" x2="612" y2="118" stroke="#4a5568" stroke-width="2.5"/>
    <ellipse cx="612" cy="142" rx="40" ry="26" fill="url(#gL)" stroke="#4a5568" stroke-width="1.5"/>
    <text x="612" y="148" text-anchor="middle" font-size="11" fill="#1a202c" font-family="Segoe UI, Arial, sans-serif">CL</text>
    <path d="M 552 68 L 582 68" stroke="#c05621" stroke-width="2" stroke-dasharray="3 2"/>
    <text x="567" y="62" font-size="9" fill="#c05621" font-family="Segoe UI, Arial, sans-serif">S-S</text>
    <path d="M 552 142 L 582 142" stroke="#c05621" stroke-width="2" stroke-dasharray="3 2"/>
    <path d="M 522 168 Q 505 195 482 218" stroke="#1a365d" stroke-width="3" fill="none"/>
    <path d="M 612 168 Q 630 195 652 218" stroke="#4a5568" stroke-width="2.5" fill="none"/>
  </g>

  <path d="M 178 218 Q 280 248 335 268 Q 380 278 420 268 Q 480 248 582 218" stroke="#b7791f" stroke-width="4" fill="none" stroke-linecap="round"/>
  <text x="380" y="238" text-anchor="middle" font-size="10" fill="#975a16" font-family="Segoe UI, Arial, sans-serif" font-weight="600">hinge (inter-H disulfides)</text>

  <line x1="320" y1="285" x2="320" y2="308" stroke="#1a365d" stroke-width="3"/>
  <line x1="440" y1="285" x2="440" y2="308" stroke="#1a365d" stroke-width="3"/>
  <ellipse cx="320" cy="332" rx="44" ry="28" fill="#5a67d8" fill-opacity="0.85" stroke="#3730a3" stroke-width="1.5"/>
  <text x="320" y="328" text-anchor="middle" font-size="11" fill="#ffffff" font-family="Segoe UI, Arial, sans-serif">CH2</text>
  <text x="320" y="342" text-anchor="middle" font-size="8" fill="#e9e3ff" font-family="Segoe UI, Arial, sans-serif">N-glycan</text>
  <ellipse cx="440" cy="332" rx="44" ry="28" fill="#5a67d8" fill-opacity="0.85" stroke="#3730a3" stroke-width="1.5"/>
  <text x="440" y="328" text-anchor="middle" font-size="11" fill="#ffffff" font-family="Segoe UI, Arial, sans-serif">CH2</text>
  <text x="440" y="342" text-anchor="middle" font-size="8" fill="#e9e3ff" font-family="Segoe UI, Arial, sans-serif">N-glycan</text>
  <path d="M 352 332 L 408 332" stroke="#c05621" stroke-width="2" stroke-dasharray="3 2"/>
  <text x="380" y="326" text-anchor="middle" font-size="9" fill="#c05621" font-family="Segoe UI, Arial, sans-serif">H-H</text>
  <line x1="320" y1="360" x2="320" y2="382" stroke="#1a365d" stroke-width="3"/>
  <line x1="440" y1="360" x2="440" y2="382" stroke="#1a365d" stroke-width="3"/>
  <ellipse cx="320" cy="408" rx="44" ry="28" fill="url(#gH)" stroke="#1a365d" stroke-width="1.5"/>
  <text x="320" y="414" text-anchor="middle" font-size="11" fill="#ffffff" font-family="Segoe UI, Arial, sans-serif">CH3</text>
  <ellipse cx="440" cy="408" rx="44" ry="28" fill="url(#gH)" stroke="#1a365d" stroke-width="1.5"/>
  <text x="440" y="414" text-anchor="middle" font-size="11" fill="#ffffff" font-family="Segoe UI, Arial, sans-serif">CH3</text>
  <path d="M 352 408 L 408 408" stroke="#1a365d" stroke-width="2"/>
  <text x="380" y="402" text-anchor="middle" font-size="9" fill="#4a5568" font-family="Segoe UI, Arial, sans-serif">Fc CH3-CH3 interface</text>

  <text x="380" y="68" text-anchor="middle" font-size="10" fill="#2d3748" font-family="Segoe UI, Arial, sans-serif">N-terminus (variable domains outward)</text>
  <line x1="370" y1="72" x2="350" y2="72" marker-end="url(#arr)"/>
  <text x="380" y="468" text-anchor="middle" font-size="10" fill="#553c9a" font-family="Segoe UI, Arial, sans-serif" font-weight="600">C-terminus at Fc</text>

  <path d="M 50 120 L 95 120" stroke="#3182ce" stroke-width="1"/>
  <text x="10" y="124" font-size="11" fill="#2b6cb0" font-family="Segoe UI, Arial, sans-serif" font-weight="600">Fab</text>
  <text x="10" y="138" font-size="9" fill="#4a5568" font-family="Segoe UI, Arial, sans-serif">VH-CH1 / VL-CL</text>
  <path d="M 700 360 L 640 360" stroke="#6b46c1" stroke-width="1"/>
  <text x="705" y="352" font-size="11" fill="#6b46c1" font-family="Segoe UI, Arial, sans-serif" font-weight="600">Fc</text>
  <text x="705" y="366" font-size="9" fill="#4a5568" font-family="Segoe UI, Arial, sans-serif">CH2-CH3 stem</text>
</svg>
